<svg xmlns="http://www.w3.org/2000/svg" width="23.122" height="24.75" viewBox="0 0 23.122 24.75"><defs><style>.a{fill:#57555b;}</style></defs><g transform="translate(-8.084 -5.485)"><path class="a" d="M31.2,7.477a1.993,1.993,0,0,0-1.993-1.992H15.654a1.993,1.993,0,0,0-1.992,1.993v3.149h1.277V8.811a.637.637,0,0,1,.637-.637H29.292a.637.637,0,0,1,.637.637V26.5a.637.637,0,0,1-.637.637H20.037v.995a2.959,2.959,0,0,1-.879,2.1H29.214a1.993,1.993,0,0,0,1.992-1.993Zm-8.77,22.046a.9.9,0,1,1,.9-.9A.9.9,0,0,1,22.434,29.524ZM16.927,11.61h-6.84a2.01,2.01,0,0,0-2,2V28.231a2.01,2.01,0,0,0,2,2h6.84a2.01,2.01,0,0,0,2-2V13.613A2.01,2.01,0,0,0,16.927,11.61ZM13.507,29.82a.931.931,0,1,1,.931-.931A.931.931,0,0,1,13.507,29.82Zm4.36-2.827a.516.516,0,0,1-.515.515H9.661a.516.516,0,0,1-.515-.515V14.851a.516.516,0,0,1,.515-.515h7.692a.516.516,0,0,1,.515.515Z"/></g></svg>