<svg xmlns="http://www.w3.org/2000/svg" width="30.655" height="22.608" viewBox="0 0 30.655 22.608">
  <g id="Grupo_154" data-name="Grupo 154" transform="translate(0 0)">
    <path id="Trazado_27" data-name="Trazado 27" d="M-1479.254,916.787h-3.169a1.458,1.458,0,0,1-1.4-1.039h0a3.381,3.381,0,0,0-3.239-2.41h-7.231a3.381,3.381,0,0,0-3.238,2.41h0a1.458,1.458,0,0,1-1.4,1.039h-3.168A3.908,3.908,0,0,0-1506,920.7v11.342a3.909,3.909,0,0,0,3.909,3.909h22.837a3.909,3.909,0,0,0,3.908-3.909V920.695A3.908,3.908,0,0,0-1479.254,916.787Z" transform="translate(1506 -913.338)"/>
    <g id="Grupo_14" data-name="Grupo 14" transform="translate(8.456 5.93)">
      <path id="Trazado_28" data-name="Trazado 28" d="M-1451.129,960.742a6.879,6.879,0,0,1-6.871-6.871,6.878,6.878,0,0,1,6.871-6.871,6.879,6.879,0,0,1,6.871,6.871A6.879,6.879,0,0,1-1451.129,960.742Zm0-11.885a5.019,5.019,0,0,0-5.014,5.014,5.02,5.02,0,0,0,5.014,5.014,5.02,5.02,0,0,0,5.014-5.014A5.019,5.019,0,0,0-1451.129,948.857Z" transform="translate(1458 -947)" fill="#fff"/>
    </g>
  </g>
</svg>
