<svg xmlns="http://www.w3.org/2000/svg" width="29.989" height="29" viewBox="0 0 29.989 29"><g transform="translate(-0.001 -17.099)"><g transform="translate(0.001 17.099)"><path d="M6.3,35.525l-1.318,8.9c-.2,1.365.575,2.029,1.736,1.483l7.122-3.352,7.128,3.336c1.162.544,1.9-.143,1.638-1.5l-.219-1.183H21.11v-3.2H18.033V34.289H21.11v-3.2h4.247l1.708-1.723c.933-.933.681-1.9-.562-2.144L18.72,25.675,14.907,18.01c-.6-1.215-1.582-1.215-2.184,0l-3.8,7.67-7.78,1.562C-.1,27.494-.37,28.475.539,29.436Z" transform="translate(-0.001 -17.099)"/><path d="M332.76,249.721h-4.086v3.366H325.3v3.7h3.375v3.366h4.086v-3.366h3.552v-3.7H332.76Z" transform="translate(-306.323 -234.842)"/></g></g></svg>
