<svg xmlns="http://www.w3.org/2000/svg" width="21.083" height="22.284" viewBox="0 0 21.083 22.284">
  <path id="iPhone_6s" data-name="iPhone 6s" d="M7.977,26.8v-.5H.57V11.447H7.977V9.466H1.635A1.549,1.549,0,0,0,0,10.893V26.8a1.6,1.6,0,0,0,1.635,1.486H8.912A1.968,1.968,0,0,1,7.977,26.8ZM4.558,10.457H6.268V10.7H4.558Zm.855,17.579a.75.75,0,1,1,0-1.486.75.75,0,1,1,0,1.486ZM19.174,6h-8.73a1.79,1.79,0,0,0-1.9,1.659V26.615a1.8,1.8,0,0,0,1.9,1.669h8.73a1.806,1.806,0,0,0,1.909-1.669V7.659A1.8,1.8,0,0,0,19.174,6ZM13.96,7.238H15.67v.248H13.96Zm.855,20.674a.875.875,0,1,1,1-.867A.939.939,0,0,1,14.815,27.912Zm5.7-2.1H9.117V8.476h11.4Zm-5.7,1.733a.5.5,0,1,1,.57-.5A.536.536,0,0,1,14.815,27.541Zm-9.4.188a.44.44,0,1,1,0-.872.44.44,0,1,1,0,.872Z" transform="translate(0 -6)" fill="#333"/>
</svg>
