<svg xmlns="http://www.w3.org/2000/svg" width="22.693" height="25.006" viewBox="0 0 22.693 25.006">
  <path id="Trazado_62" data-name="Trazado 62" d="M3.833,1.455H26.144l.183,8.123H24.148l-.183-2.319a3.92,3.92,0,0,0-1.174-2.812,5.069,5.069,0,0,0-3.231-.829,3.151,3.151,0,0,0-2.2.572,3.464,3.464,0,0,0-.579,2.384L16.741,21.4a3.352,3.352,0,0,0,.586,2.34,3.358,3.358,0,0,0,2.294.571h1.585v2.148H8.755V24.314H10.6a2.775,2.775,0,0,0,2.043-.6A3.39,3.39,0,0,0,13.22,21.4V6.514a3.289,3.289,0,0,0-.594-2.31,3.161,3.161,0,0,0-2.21-.587,5.066,5.066,0,0,0-3.231.829A3.92,3.92,0,0,0,6.011,7.259L5.829,9.577H3.634Z" transform="translate(-3.634 -1.455)"/>
</svg>
